<svg width="24" height="24" viewBox="0 0 24 24" fill="none" xmlns="http://www.w3.org/2000/svg">
<path fill-rule="evenodd" clip-rule="evenodd" d="M11.9415 0C5.15122 0 0 5.03415 0 11.5902C0 14.9854 1.40488 18.0293 3.74634 20.2537C3.86341 20.3707 3.98049 20.6049 3.98049 20.722L4.09756 22.8293C4.09756 23.1805 4.33171 23.5317 4.68293 23.8829H4.8C5.03415 24 5.15122 24 5.38537 24C5.50244 24 5.73659 24 5.85366 23.8829L8.07805 22.9463C8.19512 22.8293 8.31219 22.8293 8.54634 22.9463C9.71707 23.2976 10.8878 23.4146 12.0585 23.4146C18.8488 23.4146 24 18.3805 24 11.8244C24 5.26829 18.8488 0 11.9415 0ZM22.1268 11.7073C22.1268 17.3268 17.678 21.5415 11.9415 21.5415C10.8878 21.5415 9.83415 21.4244 8.89756 21.1902C8.42927 21.0732 7.96098 21.0732 7.37561 21.3073L5.73659 22.0098V20.722C5.73659 20.0195 5.50244 19.4341 4.91707 18.9659C2.92683 17.2098 1.7561 14.5171 1.7561 11.7073C1.7561 6.0878 6.20488 1.87317 11.9415 1.87317C17.7951 1.7561 22.1268 6.0878 22.1268 11.7073Z" fill="#706F6F"/>
<path fill-rule="evenodd" clip-rule="evenodd" d="M18.1463 8.31219L14.4 11.122C14.1659 11.3561 13.8146 11.3561 13.5805 11.122L10.8878 9.01463C10.0683 8.42927 8.89756 8.66342 8.31219 9.48293L4.91707 14.9854C4.56585 15.4537 5.26829 16.039 5.73659 15.8049L9.36585 12.9951C9.6 12.761 9.95122 12.761 10.1854 12.9951L12.9951 15.1024C13.8146 15.6878 14.9854 15.5707 15.5707 14.6341L18.9659 9.13171C19.2 8.54634 18.6146 7.96098 18.1463 8.31219Z" fill="#706F6F"/>
</svg>
